<?xml version="1.0"?>
<svg version="1.1" xmlns="http://www.w3.org/2000/svg" width="1309" height="561">
<path d="M0 0 C8.58986684 4.96948559 14.34501171 13.90700609 20.1171875 21.71875 C23.14719558 25.80443529 26.27432983 29.8133601 29.40234375 33.82421875 C30.29687256 34.97168579 30.29687256 34.97168579 31.20947266 36.14233398 C32.43412886 37.71261974 33.65906603 39.2826864 34.88427734 40.85253906 C37.83207341 44.6314422 40.77320651 48.41552082 43.71484375 52.19921875 C44.88147659 53.69924506 46.0481433 55.19924502 47.21484375 56.69921875 C49.54817708 59.69921875 51.88151042 62.69921875 54.21484375 65.69921875 C54.79266602 66.44212158 55.37048828 67.18502441 55.96582031 67.95043945 C57.12927687 69.44633537 58.29268853 70.9422662 59.45605469 72.43823242 C62.42146373 76.25131651 65.38771637 80.06373939 68.35546875 83.875 C74.28913912 91.49658711 80.21390402 99.12440422 86.09472656 106.78686523 C88.73143998 110.22164743 91.37128917 113.65401165 94.01171875 117.0859375 C94.46724121 117.6780603 94.92276367 118.27018311 95.39208984 118.88024902 C96.4996464 120.3199272 97.60724102 121.7595761 98.71484375 123.19921875 C98.71631031 122.63360702 98.71777687 122.06799528 98.71928787 121.4852438 C98.7563851 107.70471228 98.81568969 93.92442919 98.89874649 80.14409542 C98.93824451 73.47991118 98.97042176 66.81589815 98.98583984 60.15161133 C99.00099078 53.71941938 99.03540955 47.28759193 99.08315277 40.85556221 C99.09798251 38.40243257 99.10588567 35.9492509 99.1067276 33.49607658 C99.10909408 30.05810625 99.13615039 26.6211458 99.16894531 23.18334961 C99.16139977 21.66420204 99.16139977 21.66420204 99.15370178 20.11436462 C99.2447922 13.93643648 100.09586684 10.25298627 103.71484375 5.19921875 C109.25909005 -0.06070722 114.46714002 -1.27398214 121.9296875 -1.11328125 C127.75779499 -0.45935615 131.41351798 1.95447236 135.58984375 5.94921875 C140.99669018 14.21851329 140.00615857 23.88013538 139.98950195 33.38647461 C139.99385391 35.02820568 139.99903866 36.66993472 140.00498962 38.31166077 C140.01833808 42.75382146 140.01896299 47.19589685 140.01642632 51.63807368 C140.01535391 55.35319942 140.02024684 59.06830809 140.02503175 62.78343016 C140.03611232 71.55086431 140.03657234 80.3182556 140.03051758 89.08569336 C140.02447673 98.1163979 140.03679496 107.14694667 140.05808765 116.17762464 C140.07572553 123.945176 140.0817016 131.71267787 140.0784499 139.48024851 C140.07664058 144.1132939 140.07923828 148.74622813 140.09316444 153.37925529 C140.10577401 157.73697019 140.10376921 162.09444283 140.09075356 166.45215416 C140.08839512 168.04642571 140.09109605 169.64071449 140.09937668 171.23496628 C140.1446464 180.63208529 139.99847015 188.72650809 135.02734375 197.01171875 C130.34817547 201.43795902 125.73416898 203.43536233 119.27734375 203.82421875 C111.7390117 203.47118392 107.40438534 200.05796991 102.35546875 194.69140625 C97.04097714 188.47988262 92.19184044 181.90294005 87.3215332 175.34106445 C83.8365256 170.65375428 80.25572955 166.05873648 76.58984375 161.51171875 C72.54182142 156.49071419 68.55481081 151.43477461 64.63525391 146.3125 C61.10092393 141.69464265 57.53700771 137.1003641 53.96484375 132.51171875 C53.37203613 131.75012451 52.77922852 130.98853027 52.16845703 130.20385742 C50.95549694 128.6457607 49.74244289 127.08773712 48.52929688 125.52978516 C45.01210003 121.01213701 41.49778134 116.49224945 37.98339844 111.97241211 C34.9689041 108.09584694 31.95265229 104.22066821 28.93359375 100.34765625 C28.31097656 99.5484375 27.68835938 98.74921875 27.046875 97.92578125 C25.86777157 96.4123052 24.68812729 94.89925028 23.5078125 93.38671875 C22.69763672 92.34644531 22.69763672 92.34644531 21.87109375 91.28515625 C21.40509766 90.68751465 20.93910156 90.08987305 20.45898438 89.47412109 C18.82692096 87.34540232 17.21439529 85.20354473 15.60583496 83.05703735 C15.0646981 82.33506479 14.52356125 81.61309223 13.96602631 80.86924171 C13.55313606 80.31813414 13.14024582 79.76702656 12.71484375 79.19921875 C12.71337719 79.75360123 12.71191063 80.3079837 12.71039963 80.87916565 C12.67328454 94.39300423 12.61395696 107.90658984 12.53094101 121.42022705 C12.49146115 127.95545444 12.45927491 134.49054697 12.44384766 141.02587891 C12.42868482 147.33488524 12.39424485 153.64352084 12.34653473 159.95236206 C12.33171728 162.35721613 12.32380253 164.76212313 12.3229599 167.16702271 C12.32058972 170.54013421 12.29350369 173.91222165 12.26074219 177.28515625 C12.26828773 178.77085869 12.26828773 178.77085869 12.27598572 180.28657532 C12.17486154 187.03268912 11.00815783 192.64555607 6.30315781 197.72250366 C0.95701409 202.45863982 -3.74356172 203.67788767 -10.72265625 203.51171875 C-16.25218479 202.837386 -20.48497254 200.4083546 -24.16015625 196.26171875 C-27.74197997 191.09967868 -28.53599381 187.32225 -28.55258179 181.04606628 C-28.5571129 180.33690058 -28.56164401 179.62773487 -28.56631243 178.89707929 C-28.57894776 176.52661571 -28.57733664 174.15638215 -28.57568359 171.78588867 C-28.58166942 170.08386439 -28.58847509 168.38184283 -28.59603882 166.67982483 C-28.61370123 162.05988186 -28.61839432 157.44001298 -28.61967039 152.82003951 C-28.62109249 149.93224235 -28.62536322 147.04446401 -28.63066483 144.15667152 C-28.64916639 134.07798696 -28.65733534 123.99935528 -28.65576172 113.9206543 C-28.65456051 104.53266176 -28.67565849 95.14489921 -28.70724905 85.75696486 C-28.73342053 77.69140201 -28.74412864 69.62591422 -28.7428509 61.56030923 C-28.74234149 56.74556506 -28.74801283 51.93102526 -28.769207 47.11632347 C-28.7886039 42.58624222 -28.78870397 38.05655997 -28.77417374 33.52646446 C-28.77208629 31.86726802 -28.77678274 30.20804652 -28.78889465 28.54889297 C-28.90569327 11.43582737 -28.90569327 11.43582737 -22.46875 4.140625 C-21.89253906 3.68558594 -21.31632813 3.23054687 -20.72265625 2.76171875 C-20.14386719 2.28863281 -19.56507813 1.81554687 -18.96875 1.328125 C-13.79807264 -2.13898813 -5.72150837 -2.00497302 0 0 Z " fill="#1c1726" transform="translate(843.28515625,213.80078125)"></path>
<path d="M0 0 C2.40696769 2.13992246 4.72970931 4.32963423 7.015625 6.59765625 C7.86125 7.40203125 8.706875 8.20640625 9.578125 9.03515625 C10.7846875 10.30359375 10.7846875 10.30359375 12.015625 11.59765625 C12.66917969 12.25636719 13.32273437 12.91507813 13.99609375 13.59375 C33.81670732 34.36957386 39.88451823 60.35193803 39.296875 88.37109375 C38.3471531 114.67047601 27.26917156 136.19028767 9.015625 154.59765625 C8.3659375 155.29632813 7.71625 155.995 7.046875 156.71484375 C-9.41335643 174.184429 -34.20072421 182.87596588 -57.70703125 183.81640625 C-87.04367233 184.56738785 -112.40912293 175.49211673 -133.984375 155.59765625 C-134.97824219 154.72560547 -134.97824219 154.72560547 -135.9921875 153.8359375 C-153.78089316 137.41241158 -163.91715073 112.29625506 -165.09106445 88.4284668 C-165.93827638 58.63428477 -157.35986976 32.30320959 -137.03125 10.37109375 C-123.14516388 -4.19263516 -106.3446877 -13.40548143 -86.984375 -18.40234375 C-86.04980469 -18.64855469 -85.11523438 -18.89476562 -84.15234375 -19.1484375 C-55.32164458 -25.26915694 -22.99467169 -18.51010875 0 0 Z M-111.32324219 42.19091797 C-116.72598476 49.0444352 -120.68944068 56.15331229 -122.984375 64.59765625 C-123.20738281 65.39429688 -123.43039063 66.1909375 -123.66015625 67.01171875 C-127.57659739 83.37018718 -124.39675739 100.16139806 -116.02734375 114.5625 C-106.19896913 129.16411965 -91.84871401 139.55652789 -74.52734375 143.08984375 C-58.46112073 145.39261 -41.47499501 143.1742083 -27.984375 133.59765625 C-14.2919791 122.65073437 -4.15561967 109.24263512 -0.984375 91.59765625 C0.57681265 73.9432259 -2.03139799 58.10633046 -13.16015625 43.80078125 C-15.35324553 41.30088674 -17.61885516 38.93422742 -19.984375 36.59765625 C-20.59796875 35.96214844 -21.2115625 35.32664062 -21.84375 34.671875 C-33.4593829 23.47817749 -49.35991409 19.07135645 -65.12426758 19.17553711 C-83.72009236 19.77212137 -99.44108746 28.05106717 -111.32324219 42.19091797 Z " fill="#1c1726" transform="translate(342.984375,233.40234375)"></path>
<path d="M0 0 C0.67343445 -0.00014603 1.3468689 -0.00029205 2.04071045 -0.0004425 C4.26455924 0.00025364 6.48832406 0.00803207 8.7121582 0.01586914 C10.25486709 0.01773438 11.79757657 0.01915778 13.34028625 0.02015686 C17.39927813 0.0239737 21.45823418 0.03379688 25.51721191 0.04486084 C29.65966304 0.05509287 33.80211996 0.05965832 37.94458008 0.06469727 C46.07154964 0.07541989 54.19849009 0.09248632 62.32543945 0.11352539 C61.37614019 1.55337486 60.42471991 2.99182608 59.47241211 4.4296875 C58.94281891 5.23087509 58.41322571 6.03206268 57.86758423 6.85752869 C55.97745304 9.62259315 53.89434711 12.14662326 51.70043945 14.67602539 C47.77814617 19.27141932 44.10484956 24.00626994 40.51293945 28.86352539 C36.41639683 34.39669816 32.19893408 39.79661294 27.82543945 45.11352539 C22.97031873 51.0192411 18.32583862 57.04550142 13.77246094 63.18603516 C9.92845962 68.35368142 5.94180329 73.3888799 1.89550781 78.39892578 C-1.87356024 83.07859186 -5.53980071 87.82898356 -9.17456055 92.61352539 C-13.33470769 98.08782754 -17.55082721 103.5073342 -21.86206055 108.86352539 C-29.02956668 117.7697131 -36.13095541 126.73435802 -42.67456055 136.11352539 C-37.07758663 145.35362052 -30.76370876 154.02637128 -24.40063477 162.74633789 C-21.62782943 166.54904236 -18.86877748 170.36164792 -16.11206055 174.17602539 C-15.57444092 174.91981445 -15.03682129 175.66360352 -14.48291016 176.42993164 C-8.31590616 184.97586276 -2.25598347 193.59671589 3.80493164 202.21801758 C5.29003074 204.32965816 6.77611119 206.440602 8.26293945 208.55102539 C8.75109131 209.24397705 9.23924316 209.93692871 9.7421875 210.65087891 C14.03773002 216.73429967 18.39708464 222.77083595 22.78613281 228.78710938 C25.4379194 232.43653926 28.01840294 236.11841361 30.51342773 239.87719727 C31.04316193 240.67444214 31.57289612 241.47168701 32.11868286 242.29309082 C32.51691254 242.89383423 32.91514221 243.49457764 33.32543945 244.11352539 C25.09237263 244.23023628 16.859661 244.31864843 8.62596703 244.37258625 C4.80120654 244.39849574 0.97701884 244.43354318 -2.84741211 244.49072266 C-6.54981346 244.54572064 -10.25166985 244.57508543 -13.9544487 244.58791161 C-15.35525448 244.59703188 -16.75603612 244.6148352 -18.15660477 244.64217567 C-33.25566578 244.92475008 -46.02365327 240.98580628 -57.29956055 230.61962891 C-61.70695321 226.37145935 -65.29591087 221.80702856 -68.79956055 216.80102539 C-69.93348093 215.20583525 -71.06760134 213.61078727 -72.2019043 212.01586914 C-73.06211182 210.79939697 -73.06211182 210.79939697 -73.93969727 209.55834961 C-76.71992375 205.6403665 -79.543011 201.75361318 -82.36206055 197.86352539 C-86.55201032 192.06678639 -90.72161232 186.25607272 -94.87329102 180.43188477 C-98.22762822 175.73017062 -101.6049498 171.04528997 -104.98706055 166.36352539 C-105.52621094 165.61570801 -106.06536133 164.86789063 -106.62084961 164.09741211 C-109.51502164 160.08647647 -112.42499906 156.08824636 -115.3581543 152.10571289 C-115.95523193 151.29070312 -116.55230957 150.47569336 -117.16748047 149.63598633 C-118.31489278 148.0703911 -119.46719495 146.50836464 -120.625 144.95043945 C-121.39976685 143.89034668 -121.39976685 143.89034668 -122.19018555 142.80883789 C-122.64683594 142.19024902 -123.10348633 141.57166016 -123.57397461 140.93432617 C-124.79110058 138.92072247 -125.43780853 137.4601812 -125.67456055 135.11352539 C-124.78515625 133.44458008 -124.78515625 133.44458008 -123.3503418 131.78540039 C-122.82239014 131.15883545 -122.29443848 130.53227051 -121.75048828 129.88671875 C-121.16855713 129.21906494 -120.58662598 128.55141113 -119.98706055 127.86352539 C-118.77347863 126.42434488 -117.56260531 124.98287664 -116.35424805 123.53930664 C-115.73646484 122.80405762 -115.11868164 122.06880859 -114.48217773 121.3112793 C-111.74036041 117.9776975 -109.17281081 114.52446756 -106.61206055 111.05102539 C-102.20876907 105.10857844 -97.67103637 99.29791864 -93.02929688 93.5402832 C-89.49033529 89.14677073 -86.02345062 84.70731708 -82.5949707 80.22680664 C-79.06064095 75.60894958 -75.49675922 71.01464348 -71.92456055 66.42602539 C-71.33392822 65.66733154 -70.7432959 64.9086377 -70.13476562 64.12695312 C-68.92397356 62.57180885 -67.71311685 61.0167149 -66.50219727 59.46166992 C-64.68469457 57.12654556 -62.86880267 54.79017829 -61.0534668 52.45336914 C-47.01390533 34.3820023 -47.01390533 34.3820023 -40.91088867 26.68334961 C-39.71116491 25.16000368 -38.52850428 23.62326766 -37.34643555 22.08618164 C-27.99048807 10.16225557 -15.82452315 -0.02882427 0 0 Z " fill="#D58EF2" transform="translate(1246.674560546875,-0.113525390625)"></path>
<path d="M0 0 C5.05060922 3.72783062 8.65267211 7.93438526 10.625 13.9375 C10.82886404 16.51770379 10.93590943 18.99367268 10.94384766 21.57348633 C10.95389328 22.32524139 10.9639389 23.07699646 10.97428894 23.85153198 C11.00505859 26.32419098 11.02213858 28.796742 11.0390625 31.26953125 C11.05777917 32.98875351 11.07735296 34.70796663 11.0977478 36.4271698 C11.14902234 40.94309089 11.18867307 45.45904176 11.22589111 49.97509766 C11.26596011 54.58698868 11.31703924 59.19875638 11.3671875 63.81054688 C11.46389138 72.85277789 11.54831387 81.89507861 11.625 90.9375 C12.03593368 90.45624822 12.44686735 89.97499643 12.87025356 89.47916126 C17.31267697 84.33247598 21.95739243 79.45140216 26.76000977 74.64135742 C27.93214523 73.4617746 27.93214523 73.4617746 29.12796021 72.25836182 C31.68802499 69.68380897 34.25186357 67.11306069 36.81640625 64.54296875 C37.69613539 63.66041224 38.57586452 62.77785572 39.48225212 61.86855507 C43.65225031 57.68515764 47.82398373 53.50350473 51.99874455 49.32486075 C56.79993186 44.51918079 61.5944817 39.70700478 66.38345295 34.88915175 C70.54964655 30.69871372 74.7240948 26.51656554 78.90156364 22.3373661 C80.67146692 20.56443771 82.43887061 18.78901031 84.20370674 17.01103783 C86.66857878 14.52911798 89.1427331 12.05682757 91.61938477 9.58666992 C92.70664604 8.48558647 92.70664604 8.48558647 93.81587219 7.36225891 C99.1716479 2.05036739 103.72310816 -1.48969857 111.5625 -1.5 C118.07517156 -1.30679343 121.65110641 -0.03639359 126.34375 4.65625 C130.44475157 9.2215159 131.78750875 12.46681027 131.9375 18.6875 C131.99357422 20.19570312 131.99357422 20.19570312 132.05078125 21.734375 C131.0729425 29.0905931 126.00178726 33.98933404 120.92871094 38.97436523 C120.26488403 39.63863022 119.60105713 40.3028952 118.91711426 40.98728943 C116.73824169 43.16408502 114.54896392 45.3300824 112.359375 47.49609375 C110.83986016 49.01000878 109.32100972 50.52459094 107.80279541 52.03981018 C103.8178429 56.01334437 99.82396174 59.97778396 95.828125 63.94036865 C91.74715094 67.99057701 87.67472545 72.04936091 83.6015625 76.10742188 C75.61769723 84.05917613 67.62436883 92.00134444 59.625 99.9375 C60.90762721 102.75376308 62.23866641 104.79783064 64.43359375 106.97314453 C65.00561523 107.54502502 65.57763672 108.11690552 66.16699219 108.70611572 C66.79250977 109.32130066 67.41802734 109.9364856 68.0625 110.5703125 C68.72282227 111.22771423 69.38314453 111.88511597 70.06347656 112.56243896 C71.49632301 113.98768069 72.93147516 115.41060732 74.36865234 116.83148193 C76.64242101 119.07972544 78.90988476 121.33415654 81.17578125 123.59033203 C85.98663545 128.37832598 90.80525289 133.15846021 95.625 137.9375 C101.20985033 143.47518098 106.79148722 149.01601978 112.36474609 154.56536865 C114.59979763 156.78744395 116.84078414 159.00341468 119.08203125 161.21923828 C120.45081585 162.58075816 121.81932063 163.94255943 123.1875 165.3046875 C123.81301758 165.91987244 124.43853516 166.53505737 125.08300781 167.16888428 C125.6550293 167.74076477 126.22705078 168.31264526 126.81640625 168.90185547 C127.31342041 169.39442841 127.81043457 169.88700134 128.32250977 170.39450073 C132.29119521 175.09601678 132.04371281 179.81027894 131.9375 185.73828125 C131.37415527 191.50552294 128.97663928 194.90418261 124.6875 198.75 C118.90844988 202.87789295 113.67750354 203.92378997 106.625 202.9375 C93.39091198 197.00288573 82.97644818 183.43586859 72.875 173.3203125 C71.16787048 171.61385756 69.46059261 169.90755101 67.75317383 168.2013855 C64.19466316 164.64434174 60.63794918 161.08551393 57.08251953 157.52539062 C52.52173399 152.9588779 47.95643243 148.39691041 43.38980103 143.83624458 C39.87250271 140.32255322 36.35758137 136.80649186 32.84338379 133.28969955 C31.15996728 131.60561572 29.47580695 129.92227508 27.79089355 128.23968887 C25.44541055 125.89673785 23.10314383 123.55061864 20.76171875 121.20361328 C20.06461288 120.50853165 19.36750702 119.81345001 18.64927673 119.0973053 C17.69499535 118.13879417 17.69499535 118.13879417 16.72143555 117.16091919 C16.16844284 116.60754946 15.61545013 116.05417973 15.04570007 115.48404121 C13.625 113.9375 13.625 113.9375 11.625 110.9375 C11.61913376 111.8718689 11.61326752 112.80623779 11.60722351 113.7689209 C11.5498846 122.5962818 11.47706503 131.42339899 11.38928509 140.25051117 C11.3446541 144.78808295 11.30538213 149.32556645 11.27856445 153.86328125 C11.25245869 158.24658835 11.21200536 162.6295544 11.16181374 167.01264954 C11.14519405 168.68064617 11.13364937 170.34870173 11.12738609 172.01676941 C11.11769126 174.36245042 11.08956983 176.70726852 11.05737305 179.05273438 C11.05880814 179.7346283 11.06024323 180.41652222 11.0617218 181.11907959 C10.95080201 186.87354503 9.67570023 192.42028976 5.9765625 196.9609375 C-0.70281487 202.18959037 -5.82966099 203.7933712 -14.375 202.9375 C-20.70313392 200.96644189 -24.59361606 197.92261161 -27.991395 192.22886467 C-29.58732434 188.43241594 -29.75488843 185.69886906 -29.76268005 181.58816528 C-29.76806559 180.86997805 -29.77345113 180.15179081 -29.77899987 179.41184032 C-29.79325302 177.01673375 -29.78618248 174.62218192 -29.77905273 172.22705078 C-29.78475775 170.50517331 -29.79172252 168.78329962 -29.79985046 167.06143188 C-29.81778379 162.39192286 -29.81661301 157.72260175 -29.81090808 153.05306864 C-29.80781608 149.15154255 -29.8139089 145.25005255 -29.81994683 141.3485316 C-29.83399139 132.1419918 -29.83243169 122.93554479 -29.82104492 113.72900391 C-29.8095671 104.23930124 -29.82363389 94.74988129 -29.8504414 85.26021588 C-29.87261322 77.10545239 -29.87923233 68.95077754 -29.87336498 60.79598606 C-29.86999735 55.92873228 -29.87239747 51.06165967 -29.88961601 46.1944313 C-29.90510639 41.61589448 -29.90110642 37.03777565 -29.88231087 32.45925522 C-29.87863059 30.78232655 -29.88171706 29.10536676 -29.89219666 27.4284668 C-29.99497731 9.61708992 -29.99497731 9.61708992 -23.55859375 3.09765625 C-22.98238281 2.73542969 -22.40617187 2.37320313 -21.8125 2 C-20.94431641 1.42958984 -20.94431641 1.42958984 -20.05859375 0.84765625 C-14.12774765 -2.35857842 -6.27530823 -1.97556 0 0 Z " fill="#1c1726" transform="translate(458.375,214.0625)"></path>
<path d="M0 0 C0.85080643 -0.0071553 1.70161285 -0.01431061 2.57820129 -0.02168274 C3.50862244 -0.02437164 4.43904358 -0.02706055 5.3976593 -0.02983093 C6.38011124 -0.03640213 7.36256317 -0.04297333 8.37478638 -0.04974365 C11.63151627 -0.06948045 14.88820001 -0.08114087 18.14497375 -0.09111023 C19.81385116 -0.09722352 19.81385116 -0.09722352 21.51644325 -0.10346031 C27.40653422 -0.12432384 33.29660187 -0.1386237 39.1867218 -0.147995 C45.26521154 -0.15905288 51.34333455 -0.19344519 57.42169476 -0.23316669 C62.09979932 -0.25933682 66.77781661 -0.26768727 71.45598793 -0.27127647 C73.69622585 -0.27614229 75.93645987 -0.28775607 78.17662621 -0.30631447 C81.31700388 -0.33071093 84.45643425 -0.32973948 87.59687805 -0.32279968 C88.51717804 -0.33560974 89.43747803 -0.3484198 90.38566589 -0.36161804 C96.34166613 -0.31380082 100.84833913 0.76801853 105.820755 4.14717102 C111.46719801 10.09079524 112.27251545 14.83760045 112.13716125 22.87763977 C111.57173946 28.72033168 109.55097692 32.41694911 105.445755 36.52217102 C100.18218814 39.78056955 95.24948054 40.43773341 89.16304016 40.3742218 C88.04981888 40.37465988 88.04981888 40.37465988 86.91410828 40.37510681 C84.47922265 40.37372174 82.04464918 40.35819973 79.6098175 40.34248352 C77.91445584 40.33875046 76.21909201 40.33590487 74.52372742 40.33390808 C70.07510862 40.32629472 65.62662172 40.30666607 61.17805481 40.28450012 C55.83323898 40.26038243 50.48837891 40.25124977 45.14352417 40.23959351 C37.0358429 40.22024025 28.92845066 40.18190175 20.820755 40.14717102 C20.820755 54.00717102 20.820755 67.86717102 20.820755 82.14717102 C27.07013 82.07756165 27.07013 82.07756165 33.445755 82.00654602 C36.78500898 81.98078996 40.12423457 81.95911027 43.46353149 81.94017029 C46.97913314 81.91911954 50.49434383 81.89102875 54.00971985 81.84541321 C58.05093493 81.79330745 62.09174129 81.77416525 66.133255 81.75654602 C67.3825177 81.73590088 68.6317804 81.71525574 69.91889954 81.69398499 C77.73152666 81.69198571 83.83857176 82.21571622 89.66059875 87.96357727 C90.02282532 88.53978821 90.38505188 89.11599915 90.758255 89.70967102 C91.13852844 90.28846008 91.51880188 90.86724915 91.91059875 91.46357727 C95.12464613 97.4088752 94.5173304 104.64769462 92.758255 110.95967102 C89.34641977 116.57269028 85.03689879 120.03186077 78.820755 122.14717102 C76.01757812 122.38768005 76.01757812 122.38768005 72.9289093 122.3742218 C71.76808334 122.37407074 70.60725739 122.37391968 69.41125488 122.37376404 C68.16838211 122.36344147 66.92550934 122.3531189 65.64497375 122.34248352 C63.72452995 122.33823868 63.72452995 122.33823868 61.76528931 122.33390808 C58.37372425 122.32629882 54.9823325 122.30667395 51.59083557 122.28450012 C48.12518195 122.26398308 44.65949928 122.25478404 41.19380188 122.24482727 C34.40263357 122.22448834 27.61194017 122.18533566 20.820755 122.14717102 C20.820755 136.00717102 20.820755 149.86717102 20.820755 164.14717102 C28.80263 164.09496399 28.80263 164.09496399 36.945755 164.04170227 C40.32727647 164.02636432 43.70875474 164.0119218 47.09028625 164.00068665 C52.45154282 163.9827891 57.81264491 163.9616707 63.17378235 163.92085266 C67.49856758 163.88813308 71.82318704 163.87029154 76.14808655 163.86253929 C77.79382433 163.85701832 79.43955358 163.84623736 81.08522034 163.82998085 C83.39960472 163.80803846 85.71331374 163.805211 88.02778625 163.80659485 C89.34238831 163.79993301 90.65699036 163.79327118 92.01142883 163.78640747 C97.71809312 164.32685908 102.19493288 165.81038394 106.633255 169.45967102 C111.54431674 175.49326115 112.4279763 180.24794021 112.2348175 187.94795227 C111.41875345 194.25320194 108.607759 197.75330791 103.695755 201.58467102 C100.17556866 203.49781577 97.5755504 204.27177947 93.62805176 204.28761292 C92.34750664 204.29617813 92.34750664 204.29617813 91.04109192 204.30491638 C89.64074707 204.30659317 89.64074707 204.30659317 88.21211243 204.30830383 C87.22644791 204.31326874 86.24078339 204.31823364 85.22525024 204.323349 C81.95890102 204.3379744 78.69260037 204.34477333 75.42622375 204.35029602 C73.15802 204.35604723 70.88981627 204.36180497 68.62161255 204.36756897 C63.86271437 204.37808008 59.10383309 204.38392201 54.34492493 204.3874054 C48.24836964 204.39288983 42.15203772 204.41691649 36.05555248 204.44537735 C31.36895089 204.46400538 26.68240308 204.46920943 21.99576759 204.47074127 C19.74830721 204.47376803 17.50084777 204.4817973 15.25342369 204.49492645 C12.10797023 204.51198977 8.9630622 204.51010578 5.81758118 204.50361633 C4.89009064 204.51283112 3.9626001 204.5220459 3.00700378 204.53153992 C-3.53147135 204.48930422 -7.67716588 203.23223695 -12.804245 198.95967102 C-20.01464443 190.42104011 -19.75462082 182.25943821 -19.69682312 171.59272766 C-19.70224894 169.91158442 -19.70937417 168.23044594 -19.71806335 166.54931641 C-19.73624646 161.99962481 -19.72924961 157.45029741 -19.71654701 152.90059972 C-19.70639163 148.12954458 -19.71581988 143.35851979 -19.72209167 138.58746338 C-19.7293614 130.57548956 -19.71979883 122.56366341 -19.70072937 114.55171204 C-19.67896936 105.3028215 -19.68600837 96.05428383 -19.70803499 86.80540186 C-19.7262171 78.85099499 -19.72873336 70.89669403 -19.71828032 62.94227308 C-19.71205987 58.19742933 -19.71116961 53.45275113 -19.72442627 48.70791817 C-19.73602487 44.24505886 -19.72788621 39.78265207 -19.70484924 35.31984138 C-19.69958317 33.68687693 -19.70103975 32.05387405 -19.7098999 30.42092514 C-19.80038171 12.0432698 -19.80038171 12.0432698 -13.14408875 4.99092102 C-12.47506531 4.54748352 -11.80604187 4.10404602 -11.116745 3.64717102 C-10.44514343 3.18310852 -9.77354187 2.71904602 -9.08158875 2.24092102 C-6.01078892 0.47536876 -3.4706141 0.02006909 0 0 Z " fill="#1c1726" transform="translate(656.1792449951172,212.8528289794922)"></path>
<path d="M0 0 C1.00501053 -0.00852997 2.01002106 -0.01705994 3.04548645 -0.02584839 C4.13703033 -0.02494202 5.22857422 -0.02403564 6.35319519 -0.02310181 C7.51150345 -0.02981903 8.66981171 -0.03653625 9.86322021 -0.04345703 C13.69349962 -0.06245926 17.523604 -0.06636244 21.35392761 -0.06851196 C23.34459575 -0.07331396 25.33526393 -0.07811947 27.32593077 -0.08343279 C33.58535736 -0.09970226 39.84472645 -0.10460313 46.10417175 -0.10317993 C52.5475033 -0.10197932 58.99049944 -0.12306809 65.43374616 -0.15466726 C70.97704185 -0.18087776 76.52022833 -0.19154521 82.06358546 -0.19026911 C85.36931805 -0.1897608 88.67468657 -0.19722785 91.98037148 -0.21662521 C95.67133402 -0.23625461 99.36143709 -0.2304579 103.05241394 -0.21841431 C104.13788513 -0.22965332 105.22335632 -0.24089233 106.34172058 -0.25247192 C113.4058944 -0.19399837 119.00010437 0.8284342 124.41654682 5.6085453 C128.34698513 9.87546617 129.86110199 14.19805795 129.92814636 19.94711304 C129.53436094 27.21245415 127.88995922 31.4318923 122.52189636 36.51742554 C116.79550511 40.3350197 111.42711209 40.54620414 104.77970886 40.46273804 C103.9225528 40.45990814 103.06539673 40.45707825 102.18226624 40.4541626 C99.46199704 40.44302552 96.74206496 40.41793313 94.02189636 40.39242554 C92.17033864 40.38238736 90.31877572 40.37326298 88.46720886 40.36508179 C83.94364276 40.34310742 79.42032659 40.30862253 74.89689636 40.26742554 C74.90058353 41.02795731 74.90427071 41.78848907 74.90806961 42.57206726 C74.99647612 61.09283386 75.06263295 79.61355825 75.10414505 98.13449097 C75.12475452 107.0911518 75.15284416 116.04767163 75.19865417 125.00424194 C75.23857149 132.81243136 75.26434092 140.62051864 75.27325034 148.42880726 C75.27845683 152.56179769 75.29066004 156.69449595 75.31981659 160.82739258 C75.34706323 164.72128636 75.35532284 168.61476895 75.34932709 172.50874901 C75.35042321 173.93413722 75.3583222 175.35953987 75.37371826 176.78484535 C75.53315754 192.31301548 75.53315754 192.31301548 69.48485184 198.77636719 C64.1646708 203.54063454 59.42961503 204.74588312 52.45939636 204.57992554 C46.92986782 203.90559279 42.69708007 201.47656138 39.02189636 197.32992554 C35.66227686 192.48812095 34.64647486 188.89258536 34.65638733 183.00953674 C34.653638 181.74895447 34.65088867 180.48837219 34.64805603 179.18959045 C34.65513338 177.80041408 34.66240299 176.41123867 34.66984558 175.02206421 C34.67040997 173.55336515 34.67009259 172.08466553 34.66896057 170.6159668 C34.66838714 166.63493531 34.68013991 162.65402453 34.69410849 158.67302108 C34.70661742 154.51034772 34.70778647 150.34767155 34.7101593 146.1849823 C34.71637359 138.30506942 34.73278372 130.42521209 34.75285828 122.54532367 C34.77521886 113.5731976 34.78621111 104.60106887 34.79624915 95.62892187 C34.81714999 77.17505827 34.85232499 58.72124637 34.89689636 40.26742554 C33.75736511 40.28313599 32.61783386 40.29884644 31.44377136 40.31503296 C27.18717102 40.36962587 22.93060121 40.40388177 18.67375183 40.43222046 C16.8367847 40.4472405 14.99985303 40.46766262 13.16300964 40.4937439 C10.51171582 40.53042756 7.86089904 40.54721991 5.20939636 40.56039429 C4.39760925 40.57587814 3.58582214 40.591362 2.74943542 40.60731506 C-3.47025435 40.60912143 -9.076583 39.62787792 -14.12654114 35.68930054 C-18.7526091 29.96688121 -20.36995144 25.1299391 -19.97810364 17.70492554 C-19.2604292 11.61303786 -17.17183495 8.17702367 -12.66560364 4.01742554 C-8.51602311 1.18356566 -5.01699402 0.01932979 0 0 Z " fill="#1c1726" transform="translate(20.103103637695313,212.73257446289063)"></path>
<path d="M0 0 C10.48299327 -0.37221473 20.9643945 -0.6557316 31.45267105 -0.82899475 C36.32435123 -0.91219992 41.19148462 -1.02481846 46.06054688 -1.20703125 C50.76832653 -1.38208714 55.47176387 -1.47677259 60.18254852 -1.51803589 C61.97078608 -1.5473971 63.75880903 -1.60474929 65.54517365 -1.69168091 C79.13573068 -2.32618601 79.13573068 -2.32618601 83.92541504 1.56370544 C87.49290199 5.37452084 90.27431589 9.60716127 92.89211273 14.10824585 C94.32530334 16.5554662 95.94453761 18.85079212 97.59375 21.15625 C98.56544403 22.60219258 99.53425986 24.05007407 100.5 25.5 C104.51862894 31.45531759 108.6438006 37.28702226 113 43 C117.91647343 49.45221361 122.52480494 56.07590727 127.07421875 62.79077148 C132.3356977 70.53970857 137.80850862 78.12519292 143.32226562 85.69580078 C146.30498901 89.792271 149.27816571 93.89562697 152.25 98 C152.81138672 98.772229 153.37277344 99.54445801 153.95117188 100.34008789 C154.46744141 101.05285889 154.98371094 101.76562988 155.515625 102.5 C155.97227539 103.1290625 156.42892578 103.758125 156.89941406 104.40625 C158 106 158 106 159 108 C150.76693318 108.11671089 142.53422155 108.20512304 134.30052757 108.25906086 C130.47576709 108.28497035 126.65157939 108.32001779 122.82714844 108.37719727 C119.12474708 108.43219525 115.42289069 108.46156004 111.72011185 108.47438622 C110.31930606 108.48350648 108.91852442 108.50130981 107.51795578 108.52865028 C92.41889477 108.81122469 79.65090727 104.87228089 68.375 94.50610352 C63.96760733 90.25793396 60.37864968 85.69350317 56.875 80.6875 C55.74107961 79.09230986 54.6069592 77.49726188 53.47265625 75.90234375 C52.89918457 75.0913623 52.32571289 74.28038086 51.73486328 73.44482422 C48.9546368 69.52684111 46.13154955 65.64008779 43.3125 61.75 C39.12255022 55.953261 34.95294823 50.14254733 30.80126953 44.31835938 C27.44693343 39.61664678 24.0698483 34.93159159 20.6875 30.25 C20.14834961 29.50290771 19.60919922 28.75581543 19.05371094 27.98608398 C16.15236388 23.96820731 13.24100594 19.95801933 10.31640625 15.95703125 C9.71932861 15.13750977 9.12225098 14.31798828 8.50708008 13.47363281 C7.35773357 11.89645536 6.2053457 10.32148864 5.04956055 8.74902344 C4.53304932 8.03907227 4.01653809 7.32912109 3.484375 6.59765625 C3.02772461 5.97383057 2.57107422 5.35000488 2.10058594 4.70727539 C1 3 1 3 0 0 Z " fill="#CE5FFB" transform="translate(1121,136)"></path>
<path d="M0 0 C4.30742707 4.02978444 7.65951005 8.44423115 11.0625 13.25 C11.90796387 14.43275513 11.90796387 14.43275513 12.77050781 15.6394043 C14.51904593 18.08916379 16.2603162 20.54394683 18 23 C18.5367334 23.75555176 19.0734668 24.51110352 19.62646484 25.28955078 C22.15691324 28.85229014 24.67703373 32.42158549 27.1796875 36.00390625 C29.01763625 38.62909494 30.89616657 41.21473734 32.8203125 43.77734375 C33.25311523 44.36604248 33.68591797 44.95474121 34.13183594 45.5612793 C35.29251 47.13794514 36.46986406 48.70229391 37.6484375 50.265625 C39 53 39 53 38.5234375 55.47265625 C36.65373372 58.57444689 34.53435319 61.38722045 32.25 64.1875 C31.25455581 65.43046728 30.25979797 66.67398446 29.265625 67.91796875 C28.47188477 68.90676025 28.47188477 68.90676025 27.66210938 69.91552734 C24.73848182 73.58208611 21.8728478 77.2936206 19 81 C17.81148931 82.5288724 16.62268965 84.05752021 15.43359375 85.5859375 C13.76130464 87.73555599 12.08912661 89.88525533 10.41845703 92.03613281 C7.30324137 96.04385927 4.16467336 100.03118833 1 104 C0.37867188 104.79019531 -0.24265625 105.58039063 -0.8828125 106.39453125 C-9.29111439 116.62137286 -20.95438099 123.01391221 -34 125 C-38.88714713 125.26477657 -43.76778213 125.2340145 -48.66015625 125.1953125 C-50.0597666 125.19157474 -51.45937961 125.18873138 -52.85899353 125.18673706 C-56.51353387 125.17916061 -60.16791108 125.15956486 -63.8223877 125.1373291 C-67.56320999 125.11674041 -71.30405906 125.10770771 -75.04492188 125.09765625 C-82.363355 125.07631224 -89.6816545 125.04225024 -97 125 C-95.33904457 121.55765732 -93.37521679 118.67795344 -91.0625 115.625 C-90.66844971 115.10462158 -90.27439941 114.58424316 -89.8684082 114.0480957 C-83.03751102 105.06330001 -76.00141284 96.23940452 -68.9375 87.4375 C-64.87363062 82.37240622 -60.86731506 77.27091027 -56.9206543 72.11376953 C-51.59720093 65.15756705 -46.20517148 58.25473464 -40.82324219 51.34375 C-39.01769758 49.02274997 -37.21538052 46.69928132 -35.4140625 44.375 C-29.4482029 36.68116622 -23.44946215 29.01834377 -17.34960938 21.43017578 C-13.34842449 16.45029351 -9.39924927 11.43101275 -5.47583008 6.38964844 C-3.72848875 4.15289356 -2.00926786 2.00926786 0 0 Z " fill="#E4F700" transform="translate(1113,146)"></path>
<path d="M0 0 C8.11998555 -0.09331432 16.23974134 -0.16407234 24.36013317 -0.20724869 C28.13212927 -0.22798734 31.90375442 -0.25604797 35.67553711 -0.30175781 C39.32604345 -0.34571327 42.97619653 -0.3692398 46.6269474 -0.37950897 C48.00901146 -0.38681247 49.39105958 -0.40107 50.7729702 -0.42292023 C66.7748882 -0.66551692 80.15078113 3.3295842 91.9375 14.375 C98.21891251 20.8860985 103.07024917 28.44604721 108 36 C105.55481818 40.37646102 102.59410043 44.13115128 99.4375 48 C95.5478494 52.81275824 91.69440563 57.64529524 87.9375 62.5625 C84.41028948 67.17456915 80.8456704 71.75363833 77.25 76.3125 C73.42965648 81.15812206 69.67083543 86.03941158 66 91 C62.58981325 89.86327108 62.22708792 89.26867984 60.3203125 86.37890625 C59.81048828 85.61771484 59.30066406 84.85652344 58.77539062 84.07226562 C58.23076172 83.24404297 57.68613281 82.41582031 57.125 81.5625 C55.9525701 79.81242747 54.77803802 78.0637617 53.6015625 76.31640625 C52.7029248 74.98053467 52.7029248 74.98053467 51.78613281 73.61767578 C49.10373641 69.68647646 46.3082981 65.84178603 43.5 62 C39.02792597 55.86765922 34.69206928 49.66005818 30.4375 43.375 C25.95429385 36.7606096 21.3088023 30.31246468 16.4753418 23.95043945 C12.63773961 18.88762115 8.91838946 13.7491633 5.25 8.5625 C4.72398193 7.82177246 4.19796387 7.08104492 3.65600586 6.31787109 C0 1.1241434 0 1.1241434 0 0 Z " fill="#45E8E0" transform="translate(1049,35)"></path>
<path d="M0 0 C4.76152434 3.33491977 8.96176759 7.54839848 10.0078125 13.40625 C6.93336075 13.76795021 4.07028466 13.9209949 1.0078125 13.40625 C-1.4921875 10.59375 -1.4921875 10.59375 -2.6328125 8.94921875 C-5.34823324 5.86706015 -9.03293776 4.97277679 -12.9921875 4.40625 C-17.86235732 4.59881026 -21.25470129 5.94190683 -25.3671875 8.53125 C-29.79645861 13.38235646 -31.6418588 18.66675662 -31.33984375 25.32421875 C-30.39240901 30.99818187 -28.39267232 35.26299709 -23.9296875 38.90625 C-18.82763677 41.5115525 -14.62719619 41.93694431 -8.9921875 41.40625 C-4.27675914 39.71581342 -1.71929792 37.59431242 1.0078125 33.40625 C1.6678125 31.42625 2.3278125 29.44625 3.0078125 27.40625 C-3.2621875 27.40625 -9.5321875 27.40625 -15.9921875 27.40625 C-15.9921875 25.42625 -15.9921875 23.44625 -15.9921875 21.40625 C-7.0821875 21.40625 1.8278125 21.40625 11.0078125 21.40625 C11.0078125 34.99917035 11.0078125 34.99917035 5.2421875 41.3515625 C-0.30987073 46.57574328 -5.76454885 49.44856169 -13.4296875 49.78125 C-21.3554566 49.440796 -27.52215005 46.91278795 -33.26171875 41.40234375 C-38.89526443 34.90405517 -39.66278353 28.21395628 -39.36328125 19.7734375 C-38.42154808 11.22844807 -34.77791958 6.60755279 -28.40625 1.03515625 C-20.29899101 -4.43527579 -8.59307106 -4.4392249 0 0 Z " fill="#1c1726" transform="translate(799.9921875,493.59375)"></path>
<path d="M0 0 C26.25 0 26.25 0 32.5 5 C35.36970131 8.82626841 35.32016328 12.35763243 35 17 C33.46036426 20.22590345 31.64430181 22.60753646 29 25 C29.78375 25.7425 30.5675 26.485 31.375 27.25 C34.99881462 31.04637723 35.86616968 32.61708671 36.375 37.875 C36.24556464 42.21917437 34.90808213 44.70927549 32 48 C26.13178233 52.20291266 19.5147781 51.33194247 12.625 51.1875 C8.45875 51.125625 4.2925 51.06375 0 51 C0 34.17 0 17.34 0 0 Z M7 7 C7 11.95 7 16.9 7 22 C9.371875 22.0825 11.74375 22.165 14.1875 22.25 C14.92508545 22.28641602 15.6626709 22.32283203 16.42260742 22.36035156 C19.96873531 22.41973304 21.90906325 22.05533188 24.953125 20.203125 C27.32261066 18.06201678 27.32261066 18.06201678 27.5625 14.5 C26.89962447 10.37544113 26.34454101 9.42281711 23 7 C20.10550051 6.7093876 17.62050065 6.61813955 14.75 6.75 C14.00492188 6.76804687 13.25984375 6.78609375 12.4921875 6.8046875 C10.66090299 6.85164351 8.83028351 6.92338348 7 7 Z M7 28 C7 33.61 7 39.22 7 45 C9.536875 45.0825 12.07375 45.165 14.6875 45.25 C15.47729248 45.28641602 16.26708496 45.32283203 17.08081055 45.36035156 C20.86303471 45.41965056 22.64866206 45.21767172 25.95703125 43.16796875 C28.57094316 40.39412341 29 38.79450067 29 35 C27.7329261 31.90270825 26.81891662 30.42944994 23.83984375 28.8671875 C20.34238426 27.79918749 17.33834293 27.80675995 13.6875 27.875 C11.480625 27.91625 9.27375 27.9575 7 28 Z " fill="#1c1726" transform="translate(655,491)"></path>
<path d="M0 0 C4.95714514 4.85192272 6.19934704 10.08212224 6.5 16.875 C6.29244296 23.12765595 4.6997324 27.62988082 0.34375 32.1640625 C-4.76054189 36.7276455 -8.63391942 37.66700082 -15.4296875 37.59765625 C-20.54833384 37.143197 -23.39591709 34.91658291 -26.9375 31.375 C-27.2675 39.295 -27.5975 47.215 -27.9375 55.375 C-30.2475 55.375 -32.5575 55.375 -34.9375 55.375 C-34.9375 35.905 -34.9375 16.435 -34.9375 -3.625 C-32.6275 -3.625 -30.3175 -3.625 -27.9375 -3.625 C-27.6075 -1.975 -27.2775 -0.325 -26.9375 1.375 C-26.2775 0.75625 -25.6175 0.1375 -24.9375 -0.5 C-17.16922528 -6.00252793 -7.59252524 -5.86258278 0 0 Z M-23.9375 6.375 C-26.6259419 9.89778594 -27.67231727 12.95528783 -27.9375 17.375 C-26.97092686 22.88446692 -25.36844389 25.92871031 -20.9375 29.375 C-16.82406077 31.23768946 -14.01342431 31.70632952 -9.75 30.375 C-5.70375512 28.58712436 -3.87475771 26.40449604 -1.9375 22.375 C-0.60110497 17.12487665 -0.89296703 13.39339912 -2.9375 8.375 C-6.49142456 4.18319155 -8.74295322 2.58203271 -14.25 2.0625 C-18.67017921 2.43709146 -20.56479281 3.53885987 -23.9375 6.375 Z " fill="#1c1726" transform="translate(972.9375,505.625)"></path>
<path d="M0 0 C2.64 0 5.28 0 8 0 C8 17.82 8 35.64 8 54 C5.36 54 2.72 54 0 54 C-0.495 52.02 -0.495 52.02 -1 50 C-1.763125 50.639375 -2.52625 51.27875 -3.3125 51.9375 C-8.17822339 55.67165981 -13.08606055 55.61420736 -19 55 C-24.61273977 53.38803667 -27.91931594 50.50924456 -31.08984375 45.68359375 C-34.29100946 39.76212413 -34.20397911 31.05224969 -32.31640625 24.69921875 C-29.68244764 19.77010949 -25.90735506 16.08468613 -20.70703125 14.14453125 C-14.45750855 12.54581614 -9.785111 13.20800369 -4 16 C-3.01 16.66 -2.02 17.32 -1 18 C-0.67 12.06 -0.34 6.12 0 0 Z M-23 24 C-26.07785948 28.96428949 -26.43426702 32.86161052 -25.65234375 38.625 C-24.61133316 42.41502656 -22.83221832 44.30593867 -20 47 C-16.27083603 48.86458199 -12.06038696 48.56048286 -8 48 C-4.08861625 46.01250826 -1.65471922 43.02823051 0 39 C0.78168343 33.41654692 0.28213652 28.70439568 -3 24 C-6.8761881 20.57453145 -9.96815049 19.3202919 -15.04296875 19.62109375 C-18.47557227 20.28568964 -20.43384024 21.67255278 -23 24 Z " fill="#1c1726" transform="translate(297,488)"></path>
<path d="M0 0 C2.31 0 4.62 0 7 0 C7.33 6.27 7.66 12.54 8 19 C9.65 17.68 11.3 16.36 13 15 C18.2790305 13.01928709 23.70439596 12.38597077 29.1171875 14.1171875 C34.02767779 16.41961656 37.73794418 19.68196876 39.9375 24.6875 C41.90311908 31.11261737 42.19325293 38.10017766 39.4375 44.3125 C36.58000616 49.27229287 32.44551331 53.1848289 27 55 C20.03720772 55.75440556 14.89014714 54.82936459 9 51 C8.67 50.67 8.34 50.34 8 50 C7.67 51.32 7.34 52.64 7 54 C4.69 54 2.38 54 0 54 C0 36.18 0 18.36 0 0 Z M11 24 C8.3115581 27.52278594 7.26518273 30.58028783 7 35 C7.96657314 40.50946692 9.56905611 43.55371031 14 47 C18.11343923 48.86268946 20.92407569 49.33132952 25.1875 48 C29.23374488 46.21212436 31.06274229 44.02949604 33 40 C34.33639503 34.74987665 34.04453297 31.01839912 32 26 C28.44607544 21.80819155 26.19454678 20.20703271 20.6875 19.6875 C16.26732079 20.06209146 14.37270719 21.16385987 11 24 Z " fill="#1c1726" transform="translate(162,488)"></path>
<path d="M0 0 C0.33 -1.32 0.66 -2.64 1 -4 C3.64 -4 6.28 -4 9 -4 C9 9.2 9 22.4 9 36 C6.36 36 3.72 36 1 36 C0.505 34.02 0.505 34.02 0 32 C-0.763125 32.639375 -1.52625 33.27875 -2.3125 33.9375 C-7.17822339 37.67165981 -12.08606055 37.61420736 -18 37 C-23.61273977 35.38803667 -26.91931594 32.50924456 -30.08984375 27.68359375 C-33.29100946 21.76212413 -33.20397911 13.05224969 -31.31640625 6.69921875 C-28.47480356 1.38153072 -23.98842924 -2.60953262 -18.25 -4.4375 C-11.63542395 -5.78585589 -5.15950315 -4.29564138 0 0 Z M-22 6 C-25.07785948 10.96428949 -25.43426702 14.86161052 -24.65234375 20.625 C-23.61133316 24.41502656 -21.83221832 26.30593867 -19 29 C-15.27083603 30.86458199 -11.06038696 30.56048286 -7 30 C-3.08861625 28.01250826 -0.65471922 25.02823051 1 21 C1.78168343 15.41654692 1.28213652 10.70439568 -2 6 C-5.8761881 2.57453145 -8.96815049 1.3202919 -14.04296875 1.62109375 C-17.47557227 2.28568964 -19.43384024 3.67255278 -22 6 Z " fill="#1c1726" transform="translate(363,506)"></path>
<path d="M0 0 C4.69625947 2.98375322 8.03463277 6.40805527 10.18359375 11.546875 C10.36921875 12.3925 10.55484375 13.238125 10.74609375 14.109375 C7.7127577 14.33830602 4.77242561 14.46352022 1.74609375 14.109375 C-0.31640625 12.234375 -0.31640625 12.234375 -1.25390625 10.109375 C-1.25390625 9.449375 -1.25390625 8.789375 -1.25390625 8.109375 C-7.51430656 5.48977487 -12.58818178 4.42020506 -19.25390625 6.109375 C-24.35508869 8.3765672 -27.25213207 11.85538308 -29.50390625 16.921875 C-31.11037843 23.74938175 -30.79165626 29.97727498 -27.25390625 36.109375 C-24.00215496 39.69873982 -20.66801493 41.87819662 -15.765625 42.34765625 C-9.71554145 42.50664876 -5.95823691 42.34327259 -1.25390625 38.109375 C-0.82078125 37.366875 -0.38765625 36.624375 0.05859375 35.859375 C1.74609375 34.109375 1.74609375 34.109375 3.92578125 33.859375 C6.21259739 33.859375 8.46619554 33.93730721 10.74609375 34.109375 C8.74041608 40.30874235 5.41663043 44.47528631 -0.31640625 47.421875 C-7.28430119 50.69195639 -14.39596456 51.13949091 -21.81640625 49.046875 C-28.36433798 46.58567689 -33.46447646 42.24485324 -36.75390625 36.046875 C-39.5440635 28.80486684 -39.51672379 19.87708307 -37.00390625 12.546875 C-30.128332 -0.95871729 -14.139344 -6.44632457 0 0 Z " fill="#1c1726" transform="translate(635.25390625,492.890625)"></path>
<path d="M0 0 C2.97 0 5.94 0 9 0 C11.56572734 6.95921457 14.12896202 13.91934341 16.69042969 20.88012695 C17.56289616 23.25013236 18.43594232 25.61992446 19.30957031 27.98950195 C20.56205705 31.38697873 21.81248656 34.78520635 23.0625 38.18359375 C23.45622803 39.25024765 23.84995605 40.31690155 24.25561523 41.4158783 C24.61598877 42.39681961 24.9763623 43.37776093 25.34765625 44.38842773 C25.66742432 45.25668686 25.98719238 46.12494598 26.31665039 47.01951599 C27 49 27 49 27 50 C24.36 50 21.72 50 19 50 C18.32880451 48.5437455 17.66318193 47.08492133 17 45.625 C16.62875 44.81289063 16.2575 44.00078125 15.875 43.1640625 C15 41 15 41 15 39 C4.605 39.495 4.605 39.495 -6 40 C-7.98 44.95 -7.98 44.95 -10 50 C-12.64 50 -15.28 50 -18 50 C-15.44953294 40.85610328 -12.14731902 32.01326167 -8.84716797 23.12011719 C-7.86747574 20.47972114 -6.89236719 17.83766618 -5.91796875 15.1953125 C-5.29713789 13.51552781 -4.67605346 11.83583682 -4.0546875 10.15625 C-3.76302704 9.3667395 -3.47136658 8.577229 -3.17086792 7.76379395 C-1.11684346 2.23368692 -1.11684346 2.23368692 0 0 Z M4 10 C2.66128359 13.45627381 1.32994608 16.91534297 0 20.375 C-0.57234375 21.85226562 -0.57234375 21.85226562 -1.15625 23.359375 C-1.5171875 24.30039062 -1.878125 25.24140625 -2.25 26.2109375 C-2.75273437 27.51490479 -2.75273437 27.51490479 -3.265625 28.84521484 C-4.10753032 30.93609786 -4.10753032 30.93609786 -4 33 C1.28 33 6.56 33 12 33 C10.48526781 25.01323028 7.83197448 17.59877122 5 10 C4.67 10 4.34 10 4 10 Z " fill="#1c1726" transform="translate(21,492)"></path>
<path d="M0 0 C6.16972477 4.31880734 6.16972477 4.31880734 7.25 9 C7.3325 9.9075 7.415 10.815 7.5 11.75 C2.20866142 12.19094488 2.20866142 12.19094488 -0.5 11.75 C-1.85386936 10.09997172 -3.18678142 8.4325613 -4.5 6.75 C-8.4640945 5.32763913 -11.55069977 5.36624033 -15.4375 6.9375 C-17.55068578 8.58000598 -17.55068578 8.58000598 -18.5 10.625 C-18.5 13.86255825 -17.51133072 15.21059789 -15.5 17.75 C-12.81555096 19.10115779 -10.00527302 19.91316392 -7.125 20.75 C-0.39541918 22.72523532 4.11114257 24.73237613 7.875 31.0625 C8.95761967 35.71776459 8.75411225 39.65845122 6.30078125 43.75 C3.18983235 47.6693057 0.5519177 49.85848511 -4.5 50.75 C-10.62571067 51.36599325 -16.0711624 50.80832706 -21.5 47.75 C-25.43037356 44.12196287 -26.08781909 41.00530665 -26.5 35.75 C-23.86 35.75 -21.22 35.75 -18.5 35.75 C-18.21125 36.53375 -17.9225 37.3175 -17.625 38.125 C-16.65087746 40.84671632 -16.65087746 40.84671632 -14.5 42.75 C-9.82509539 43.80846897 -6.7606532 44.06292602 -2.5 41.75 C-0.219279 39.87575284 -0.219279 39.87575284 -0.125 36.875 C-0.59850732 32.92910563 -1.41142269 32.19451379 -4.5 29.75 C-7.84170936 28.57284686 -11.14056674 27.64178553 -14.56835938 26.77148438 C-19.42845926 25.41867307 -22.21493486 23.78308756 -25.5 19.75 C-27.09121454 14.97635638 -27.29879085 10.59983145 -25.3125 6 C-18.86720437 -2.00105665 -9.51308631 -3.39753083 0 0 Z " fill="#1c1726" transform="translate(582.5,492.25)"></path>
<path d="M0 0 C6.16972477 4.31880734 6.16972477 4.31880734 7.25 9 C7.3325 9.9075 7.415 10.815 7.5 11.75 C2.20866142 12.19094488 2.20866142 12.19094488 -0.5 11.75 C-1.85386936 10.09997172 -3.18678142 8.4325613 -4.5 6.75 C-8.4640945 5.32763913 -11.55069977 5.36624033 -15.4375 6.9375 C-17.55068578 8.58000598 -17.55068578 8.58000598 -18.5 10.625 C-18.5 13.86255825 -17.51133072 15.21059789 -15.5 17.75 C-12.81555096 19.10115779 -10.00527302 19.91316392 -7.125 20.75 C-0.39541918 22.72523532 4.11114257 24.73237613 7.875 31.0625 C8.95761967 35.71776459 8.75411225 39.65845122 6.30078125 43.75 C3.18983235 47.6693057 0.5519177 49.85848511 -4.5 50.75 C-10.62571067 51.36599325 -16.0711624 50.80832706 -21.5 47.75 C-25.43037356 44.12196287 -26.08781909 41.00530665 -26.5 35.75 C-23.86 35.75 -21.22 35.75 -18.5 35.75 C-18.21125 36.53375 -17.9225 37.3175 -17.625 38.125 C-16.65087746 40.84671632 -16.65087746 40.84671632 -14.5 42.75 C-9.82509539 43.80846897 -6.7606532 44.06292602 -2.5 41.75 C-0.219279 39.87575284 -0.219279 39.87575284 -0.125 36.875 C-0.59850732 32.92910563 -1.41142269 32.19451379 -4.5 29.75 C-7.84170936 28.57284686 -11.14056674 27.64178553 -14.56835938 26.77148438 C-19.42845926 25.41867307 -22.21493486 23.78308756 -25.5 19.75 C-27.09121454 14.97635638 -27.29879085 10.59983145 -25.3125 6 C-18.86720437 -2.00105665 -9.51308631 -3.39753083 0 0 Z " fill="#1c1726" transform="translate(99.5,492.25)"></path>
<path d="M0 0 C5.01282917 -0.7778528 5.01282917 -0.7778528 8 0 C10.63836695 2.63227372 12.25640221 5.72891232 14 9 C14.48855469 9.85851562 14.97710938 10.71703125 15.48046875 11.6015625 C16.68137165 13.72080291 17.85219584 15.85167629 19 18 C22.16035085 14.28728694 24.42711558 10.46371904 26.75 6.1875 C30.1092968 0.32719709 30.1092968 0.32719709 33.296875 -0.84375 C35.5 -0.8125 35.5 -0.8125 39 0 C37.69477333 3.51586684 36.14597956 6.54226514 34.109375 9.6875 C33.29339844 10.98300781 33.29339844 10.98300781 32.4609375 12.3046875 C31.31580293 14.10866662 30.15942176 15.9055533 28.9921875 17.6953125 C28.45335937 18.55898438 27.91453125 19.42265625 27.359375 20.3125 C26.85889648 21.09238281 26.35841797 21.87226562 25.84277344 22.67578125 C24.73956856 25.01606598 24.73956856 25.01606598 25.70800781 27.53881836 C26.86766431 29.74790701 28.03033943 31.92625264 29.3125 34.06640625 C29.74820313 34.79923828 30.18390625 35.53207031 30.6328125 36.28710938 C31.30957031 37.41342773 31.30957031 37.41342773 32 38.5625 C32.8970231 40.0630915 33.79289594 41.56437133 34.6875 43.06640625 C35.08324219 43.72584229 35.47898437 44.38527832 35.88671875 45.06469727 C37.0051628 47.00897489 38.017002 48.98434913 39 51 C35.87710289 51.48758988 33.10777163 51.64796233 30 51 C27.44730303 48.77000666 26.0185386 46.09420573 24.4375 43.125 C24.00115234 42.37863281 23.56480469 41.63226562 23.11523438 40.86328125 C20 35.43485086 20 35.43485086 20 33 C19.34 33 18.68 33 18 33 C17.74347656 33.69609375 17.48695313 34.3921875 17.22265625 35.109375 C15.86066337 38.32942207 14.21353296 41.23927189 12.4375 44.25 C11.81746094 45.30703125 11.19742188 46.3640625 10.55859375 47.453125 C9 50 9 50 8 51 C5.32941149 51.14115161 2.67567762 51.04247107 0 51 C2.00917345 46.78828194 4.06141342 42.78068727 6.6484375 38.89453125 C7.09574219 38.22099609 7.54304687 37.54746094 8.00390625 36.85351562 C8.93070907 35.47387324 9.86855416 34.10159476 10.81640625 32.73632812 C11.25597656 32.06666016 11.69554687 31.39699219 12.1484375 30.70703125 C12.55239746 30.1138208 12.95635742 29.52061035 13.37255859 28.90942383 C14.31059975 26.05478574 13.32400332 24.63149414 12 22 C11.09406031 20.38272618 10.15205522 18.78525885 9.1796875 17.20703125 C8.64472656 16.32982422 8.10976563 15.45261719 7.55859375 14.54882812 C6.42882225 12.71262178 5.29860819 10.87668767 4.16796875 9.04101562 C3.63558594 8.16767578 3.10320313 7.29433594 2.5546875 6.39453125 C1.81968018 5.20114136 1.81968018 5.20114136 1.06982422 3.98364258 C0 2 0 2 0 0 Z " fill="#1c1726" transform="translate(697,491)"></path>
<path d="M0 0 C3.83855012 3.49308061 5.80270544 7.54785085 6.3984375 12.6875 C6.39070312 13.863125 6.38296875 15.03875 6.375 16.25 C6.38660156 18.0134375 6.38660156 18.0134375 6.3984375 19.8125 C5.64184922 26.33992833 2.71366717 30.04704603 -2.25390625 33.9921875 C-7.48005039 37.75688194 -12.7337313 37.87760751 -19 37.25 C-25.38787977 35.26033253 -28.93403161 32.09961157 -32.8125 26.75 C-35.07923651 20.06909239 -35.33851459 12.27221203 -32.375 5.75 C-29.32173888 0.70733182 -25.51724874 -2.56775884 -19.8125 -4.1875 C-12.78974931 -5.40730324 -5.66042408 -4.53789272 0 0 Z M-24 6.25 C-26.69363853 11.0087614 -27.59316755 14.81263083 -27 20.25 C-25.27694416 24.87504462 -23.35344121 27.84171337 -19 30.25 C-14.8664446 30.9896161 -10.91967761 31.20787594 -7.08984375 29.296875 C-3.84169836 26.77497342 -1.92421367 24.22411878 -1 20.25 C-0.37755227 13.81804008 -1.1949524 10.49479534 -5 5.25 C-8.41641977 2.30808297 -11.49305576 1.70180819 -16.0078125 1.90625 C-19.47499106 2.50450826 -21.42188089 3.91170592 -24 6.25 Z " fill="#1c1726" transform="translate(878,505.75)"></path>
<path d="M0 0 C3.83855012 3.49308061 5.80270544 7.54785085 6.3984375 12.6875 C6.39070313 13.863125 6.38296875 15.03875 6.375 16.25 C6.38660156 18.0134375 6.38660156 18.0134375 6.3984375 19.8125 C5.64184922 26.33992833 2.71366717 30.04704603 -2.25390625 33.9921875 C-7.48005039 37.75688194 -12.7337313 37.87760751 -19 37.25 C-25.38787977 35.26033253 -28.93403161 32.09961157 -32.8125 26.75 C-35.07923651 20.06909239 -35.33851459 12.27221203 -32.375 5.75 C-29.32173888 0.70733182 -25.51724874 -2.56775884 -19.8125 -4.1875 C-12.78974931 -5.40730324 -5.66042408 -4.53789272 0 0 Z M-24 6.25 C-26.69363853 11.0087614 -27.59316755 14.81263083 -27 20.25 C-25.27694416 24.87504462 -23.35344121 27.84171337 -19 30.25 C-14.8664446 30.9896161 -10.91967761 31.20787594 -7.08984375 29.296875 C-3.84169836 26.77497342 -1.92421367 24.22411878 -1 20.25 C-0.37755227 13.81804008 -1.1949524 10.49479534 -5 5.25 C-8.41641977 2.30808297 -11.49305576 1.70180819 -16.0078125 1.90625 C-19.47499106 2.50450826 -21.42188089 3.91170592 -24 6.25 Z " fill="#1c1726" transform="translate(500,505.75)"></path>
<path d="M0 0 C2.64 0 5.28 0 8 0 C8.32798584 0.84296631 8.65597168 1.68593262 8.99389648 2.55444336 C10.20875678 5.67310885 11.4259576 8.79083914 12.64477539 11.90795898 C13.17241487 13.25882654 13.69911087 14.61006301 14.22485352 15.96166992 C14.97947075 17.9011998 15.73743968 19.83938995 16.49609375 21.77734375 C16.95169678 22.94515381 17.4072998 24.11296387 17.87670898 25.31616211 C18.74812216 27.87454718 18.74812216 27.87454718 20 29 C23.63 19.43 27.26 9.86 31 0 C33.64 0 36.28 0 39 0 C36.75916399 6.99278233 34.15070143 13.76925633 31.3671875 20.5625 C30.92988312 21.635 30.49257874 22.7075 30.04202271 23.8125 C29.12398584 26.06193537 28.2045198 28.31078795 27.28369141 30.55908203 C25.86861688 34.01559162 24.45940826 37.47445233 23.05078125 40.93359375 C22.1565971 43.12253766 21.26207792 45.31134474 20.3671875 47.5 C19.94428436 48.53842041 19.52138123 49.57684082 19.08566284 50.64672852 C18.69500641 51.59862061 18.30434998 52.5505127 17.90185547 53.53125 C17.55782684 54.37236328 17.21379822 55.21347656 16.85934448 56.08007812 C16 58 16 58 15 59 C12.66702567 59.04092937 10.33294775 59.04241723 8 59 C8.8440399 53.72965783 10.95226136 49.13655976 13.0390625 44.25390625 C14.82862238 38.19413642 12.43129395 33.12484131 10.05859375 27.51953125 C9.77146011 26.82486252 9.48432648 26.13019379 9.18849182 25.41447449 C8.27743287 23.21129394 7.35835205 21.01160363 6.4375 18.8125 C5.51345716 16.60253962 4.59136436 14.39187643 3.67579651 12.1783905 C3.10771674 10.8051254 2.5347602 9.4338652 1.95640564 8.06489563 C0.77136329 5.20156755 0 3.13312395 0 0 Z " fill="#1c1726" transform="translate(404,502)"></path>
<path d="M0 0 C2.31 0 4.62 0 7 0 C7.01458252 0.79172607 7.02916504 1.58345215 7.04418945 2.39916992 C7.11878356 5.99576543 7.21540833 9.59144443 7.3125 13.1875 C7.33505859 14.43337891 7.35761719 15.67925781 7.38085938 16.96289062 C7.41630859 18.16494141 7.45175781 19.36699219 7.48828125 20.60546875 C7.51446533 21.71043701 7.54064941 22.81540527 7.56762695 23.95385742 C8.05200108 27.36635654 8.913747 29.27215047 11 32 C14.83336456 33.66353556 17.13408265 34.16652257 21.25 33.375 C24.21948516 31.89025742 25.39405779 30.87379132 27 28 C28.00237635 24.78144942 28.19131177 21.71905519 28.31640625 18.359375 C28.35830078 17.28945313 28.40019531 16.21953125 28.44335938 15.1171875 C28.48267578 14.00601563 28.52199219 12.89484375 28.5625 11.75 C28.60568359 10.62335937 28.64886719 9.49671875 28.69335938 8.3359375 C28.79932015 5.55741046 28.90139142 2.77879609 29 0 C31.31 0 33.62 0 36 0 C36 13.2 36 26.4 36 40 C33.69 40 31.38 40 29 40 C28.67 39.01 28.34 38.02 28 37 C27.030625 37.66 26.06125 38.32 25.0625 39 C20.68725554 41.46989607 16.92683964 41.82113994 12 41 C7.43074866 39.6356829 4.83877188 38.01776905 1.78515625 34.3125 C-1.41640169 28.36053744 -0.41241173 21.12715134 -0.25 14.5625 C-0.2299083 13.14911379 -0.21166223 11.73570007 -0.1953125 10.32226562 C-0.15151817 6.88093317 -0.08263903 3.44064425 0 0 Z " fill="#1c1726" transform="translate(892,502)"></path>
<path d="M0 0 C2.31 0 4.62 0 7 0 C7.01458252 0.79172607 7.02916504 1.58345215 7.04418945 2.39916992 C7.11878356 5.99576543 7.21540833 9.59144443 7.3125 13.1875 C7.33505859 14.43337891 7.35761719 15.67925781 7.38085938 16.96289062 C7.41630859 18.16494141 7.45175781 19.36699219 7.48828125 20.60546875 C7.51446533 21.71043701 7.54064941 22.81540527 7.56762695 23.95385742 C8.05200108 27.36635654 8.913747 29.27215047 11 32 C14.83336456 33.66353556 17.13408265 34.16652257 21.25 33.375 C24.21948516 31.89025742 25.39405779 30.87379132 27 28 C28.00237635 24.78144942 28.19131177 21.71905519 28.31640625 18.359375 C28.35830078 17.28945313 28.40019531 16.21953125 28.44335938 15.1171875 C28.48267578 14.00601563 28.52199219 12.89484375 28.5625 11.75 C28.60568359 10.62335937 28.64886719 9.49671875 28.69335938 8.3359375 C28.79932015 5.55741046 28.90139142 2.77879609 29 0 C31.31 0 33.62 0 36 0 C36 13.2 36 26.4 36 40 C33.69 40 31.38 40 29 40 C28.67 39.01 28.34 38.02 28 37 C27.030625 37.66 26.06125 38.32 25.0625 39 C20.68725554 41.46989607 16.92683964 41.82113994 12 41 C7.43074866 39.6356829 4.83877188 38.01776905 1.78515625 34.3125 C-1.41640169 28.36053744 -0.41241173 21.12715134 -0.25 14.5625 C-0.2299083 13.14911379 -0.21166223 11.73570007 -0.1953125 10.32226562 C-0.15151817 6.88093317 -0.08263903 3.44064425 0 0 Z " fill="#1c1726" transform="translate(116,502)"></path>
<path d="M0 0 C2.29446051 3.33066848 2.70212559 5.81113507 2.9375 9.8125 C-0.375 10.125 -0.375 10.125 -4.0625 9.8125 C-5.875 7.375 -5.875 7.375 -7.0625 4.8125 C-10.08118434 3.30315783 -12.73547229 3.63739328 -16.0625 3.8125 C-17.0525 4.4725 -18.0425 5.1325 -19.0625 5.8125 C-19.26601294 8.22230461 -19.26601294 8.22230461 -18.0625 10.8125 C-15.27035574 12.4413828 -12.25062762 13.37204989 -9.1875 14.375 C-0.67916634 17.22654884 -0.67916634 17.22654884 1.9765625 19.75 C3.68910118 23.42569278 3.69925079 26.86268111 2.9375 30.8125 C-0.17101753 34.87084233 -3.46497595 37.46562567 -8.578125 38.1484375 C-14.90664419 38.23884492 -19.90652911 37.71738972 -25.0625 33.8125 C-27.77896203 30.41692246 -28.0625 29.2458244 -28.0625 24.8125 C-22.68226637 24.37149724 -22.68226637 24.37149724 -20.0625 24.8125 C-19.04383771 26.46782623 -18.04439187 28.13510138 -17.0625 29.8125 C-13.14023764 31.09168276 -8.95762635 31.27317238 -5.0625 29.8125 C-5.0625 27.8325 -5.0625 25.8525 -5.0625 23.8125 C-5.76375 23.57015625 -6.465 23.3278125 -7.1875 23.078125 C-21.5625 18 -21.5625 18 -26.0625 14.0625 C-27.57742221 10.65392503 -27.71696094 7.43001485 -27.0625 3.8125 C-24.24653675 -0.81372534 -21.50629307 -2.48927341 -16.4375 -3.9375 C-10.33735858 -4.38936233 -5.02346712 -3.5881908 0 0 Z " fill="#1c1726" transform="translate(237.0625,505.1875)"></path>
<path d="M0 0 C1.8871875 0.0309375 1.8871875 0.0309375 3.8125 0.0625 C3.8125 2.0425 3.8125 4.0225 3.8125 6.0625 C1.5025 6.3925 -0.8075 6.7225 -3.1875 7.0625 C-3.5175 9.7025 -3.8475 12.3425 -4.1875 15.0625 C-1.5475 15.0625 1.0925 15.0625 3.8125 15.0625 C3.8125 17.0425 3.8125 19.0225 3.8125 21.0625 C1.1725 21.0625 -1.4675 21.0625 -4.1875 21.0625 C-4.1875 32.2825 -4.1875 43.5025 -4.1875 55.0625 C-6.8275 55.0625 -9.4675 55.0625 -12.1875 55.0625 C-12.1875 43.8425 -12.1875 32.6225 -12.1875 21.0625 C-13.8375 21.0625 -15.4875 21.0625 -17.1875 21.0625 C-17.1875 19.0825 -17.1875 17.1025 -17.1875 15.0625 C-15.5375 15.0625 -13.8875 15.0625 -12.1875 15.0625 C-12.16171875 14.47082031 -12.1359375 13.87914062 -12.109375 13.26953125 C-11.73393313 8.03894334 -11.17607536 4.81645328 -7.1875 1.0625 C-4.43671116 0.14557039 -2.82801087 -0.04636083 0 0 Z " fill="#1c1726" transform="translate(527.1875,486.9375)"></path>
<path d="M0 0 C0 2.64 0 5.28 0 8 C-1.258125 8.2475 -2.51625 8.495 -3.8125 8.75 C-6.59365447 9.45265917 -7.80724805 9.81968366 -9.9375 11.8125 C-11.873946 15.7993006 -12.13709536 19.92047229 -12.31640625 24.30078125 C-12.35830078 25.27724609 -12.40019531 26.25371094 -12.44335938 27.25976562 C-12.48267578 28.26716797 -12.52199219 29.27457031 -12.5625 30.3125 C-12.62727539 31.85260742 -12.62727539 31.85260742 -12.69335938 33.42382812 C-12.79906825 35.94909569 -12.90116468 38.47445562 -13 41 C-15.31 41 -17.62 41 -20 41 C-20 27.8 -20 14.6 -20 1 C-17.69 1 -15.38 1 -13 1 C-12.67 2.32 -12.34 3.64 -12 5 C-11.278125 4.360625 -10.55625 3.72125 -9.8125 3.0625 C-6.48995758 0.62596889 -4.05929988 0 0 0 Z " fill="#1c1726" transform="translate(839,501)"></path>
<path d="M0 0 C0 2.64 0 5.28 0 8 C-1.258125 8.2475 -2.51625 8.495 -3.8125 8.75 C-6.59365447 9.45265917 -7.80724805 9.81968366 -9.9375 11.8125 C-11.873946 15.7993006 -12.13709536 19.92047229 -12.31640625 24.30078125 C-12.35830078 25.27724609 -12.40019531 26.25371094 -12.44335938 27.25976562 C-12.48267578 28.26716797 -12.52199219 29.27457031 -12.5625 30.3125 C-12.62727539 31.85260742 -12.62727539 31.85260742 -12.69335938 33.42382812 C-12.79906825 35.94909569 -12.90116468 38.47445562 -13 41 C-15.31 41 -17.62 41 -20 41 C-20 27.8 -20 14.6 -20 1 C-17.69 1 -15.38 1 -13 1 C-12.67 2.32 -12.34 3.64 -12 5 C-11.278125 4.360625 -10.55625 3.72125 -9.8125 3.0625 C-6.48995758 0.62596889 -4.05929988 0 0 0 Z " fill="#1c1726" transform="translate(401,501)"></path>
<path d="M0 0 C2.31 0 4.62 0 7 0 C7 13.2 7 26.4 7 40 C4.69 40 2.38 40 0 40 C0 26.8 0 13.6 0 0 Z " fill="#1c1726" transform="translate(315,502)"></path>
<path d="M0 0 C2.31 0 4.62 0 7 0 C7 13.2 7 26.4 7 40 C4.69 40 2.38 40 0 40 C0 26.8 0 13.6 0 0 Z " fill="#1c1726" transform="translate(248,502)"></path>
<path d="M0 0 C0.99 0.103125 1.98 0.20625 3 0.3125 C5 3.3125 5 3.3125 4.6875 5.9375 C4 8.3125 4 8.3125 3 9.3125 C0.0625 9.5 0.0625 9.5 -3 9.3125 C-5 7.3125 -5 7.3125 -5.25 4.8125 C-4.86676958 0.9801958 -3.75087075 0.3907157 0 0 Z " fill="#1c1726" transform="translate(319,486.6875)"></path>
<path d="M0 0 C0.99 0.103125 1.98 0.20625 3 0.3125 C5 3.3125 5 3.3125 4.6875 5.9375 C4 8.3125 4 8.3125 3 9.3125 C0.0625 9.5 0.0625 9.5 -3 9.3125 C-5 7.3125 -5 7.3125 -5.25 4.8125 C-4.86676958 0.9801958 -3.75087075 0.3907157 0 0 Z " fill="#1c1726" transform="translate(252,486.6875)"></path>
</svg>