<?xml version="1.0"?>
<svg width="326px" height="303px" viewBox="0 0 326 303" version="1.1" xmlns="http://www.w3.org/2000/svg" xmlns:xlink="http://www.w3.org/1999/xlink">
    
    <title>Group 8388</title>
    <desc>Created with Sketch.</desc>
    <g id="null" stroke="none" stroke-width="1" fill="none" fill-rule="evenodd">
        <g id="ICO-Portal" transform="translate(-277.000000, -217.000000)">
            <g id="Group-8388" transform="translate(277.054690, 217.624350)">
                <path d="M149.415775,221.414431 C143.69605,213.446438 137.984135,205.469655 132.274179,197.506052 C129.234029,193.266934 126.18215,189.021967 123.13248,184.787728 C123.13248,184.787728 123.13712,184.789355 123.1464,184.792608 L108.302065,163.86313 C106.343975,166.336354 105.364931,167.572966 105.364931,167.572966 C105.280704,167.685262 105.175489,167.774129 105.084183,167.891805 C103.299099,170.149049 101.524275,172.416553 99.7372414,174.679177 C99.7372414,174.679177 98.0484304,176.810616 94.6708083,181.073493 C94.6836677,181.073493 94.6900974,181.073493 94.6900974,181.073493 C89.3006781,187.898464 83.9090688,194.699986 78.554558,201.547907 C64.2419406,219.864183 50.00231,238.244917 35.6845628,256.546553 C27.1548978,267.465617 18.5217273,278.309984 9.95641388,289.205618 C8.08979377,291.584929 6.26785175,294.020887 4.43370025,296.432916 C4.43370025,296.432916 4.42971375,296.423803 4.42174076,296.405577 C3.14786861,298.10116 2.51093254,298.948952 2.51093254,298.948952 C2.41230676,299.089087 2.29756167,299.224823 2.18745638,299.375698 C2.05196218,299.557331 1.90865831,299.744825 1.76608441,299.937199 C1.76608441,299.937199 1.17895288,300.719716 0.00468979928,302.28475 L6.8273978,302.28475 C6.8212114,302.275004 6.8181182,302.27013 6.8181182,302.27013 C6.9301734,302.27013 7.04051868,302.27452 7.15306386,302.27452 C16.3296711,302.27452 25.4991987,302.27452 34.674836,302.27452 C34.674836,302.27452 34.674836,302.260361 34.674836,302.260361 C43.2098707,302.260361 51.7468553,302.321399 60.2816501,302.246691 C78.8687446,302.110956 94.2120779,294.957386 106.140527,280.670754 C110.372526,275.592805 114.439002,270.36983 118.514018,265.179574 C128.775049,252.087243 138.993361,238.966582 149.238043,225.864972 C150.835145,223.81719 150.868103,223.433413 149.415765,221.414441 C149.415765,221.414441 149.415775,221.414431 149.415775,221.414431 Z" id="Path-20520" fill="#E4F700"></path>
                <path d="M156.0542,80.3141998 C152.102328,74.875893 148.363966,69.7139474 144.602646,64.5559117 C132.71155,48.28348 116.67512,39.9780846 96.5233848,39.8657781 C79.2711865,39.7622614 62.0167883,39.8369691 44.7672799,39.8467388 C44.7672799,39.8467388 44.7672799,39.8434822 44.7672799,39.8369691 L37.2231698,39.8096299 C41.1813353,45.1867387 43.160418,47.875293 43.160418,47.875293 C45.1019857,50.5172989 47.0552728,53.1549149 48.9572922,55.8296297 C63.2933542,75.9774279 77.6108669,96.1335259 91.9234899,116.299384 C94.4224039,119.817342 96.9147382,123.348959 99.4112123,126.881077 C99.4112123,126.881077 99.4064925,126.881077 99.3970529,126.881077 L108.775075,140.27323 L120.115654,126.13647 C120.101655,126.13647 120.094655,126.13647 120.094655,126.13647 C132.069487,110.973383 143.656156,95.4206487 156.0542,80.3141998 Z" id="Path-20521" fill="#45E8E0"></path>
                <path d="M317.412432,0.0043698249 L305.691475,0.0043698249 C305.691475,0.0512412801 305.691475,0.0746770077 305.691475,0.0746770077 C291.424801,0.0746770077 277.160577,0.0043698249 262.893663,0.0746770077 C252.144887,0.201621921 242.375392,3.52717867 233.322213,9.2564391 C226.546184,13.4813698 221.205976,19.3546645 216.319639,25.5389867 C202.448974,43.1232421 188.767763,60.843722 174.955449,78.4938948 C166.752389,89.0427921 158.542978,99.7230241 150.272286,110.281191 C141.217157,121.945764 132.163978,133.529769 123.045617,145.193362 C123.045617,145.193362 121.112468,147.622951 117.24617,152.48213 C118.203551,152.48213 118.682241,152.48213 118.682241,152.48213 C144.669633,152.48213 170.659215,152.416213 196.714968,152.416213 C196.714968,152.416213 199.624782,152.416213 205.44441,152.416213 L206.35605,152.416213 L207.069935,152.416213 L325.94533,0.0043498257 L317.412432,0.0043698249 Z" id="Path-20523" fill="#D58EF2"></path>
                <path d="M292.90891,272.57186 C285.429451,262.28795 281.689721,257.145995 281.689721,257.145995 C269.638996,240.225492 257.625871,223.291319 245.575136,206.366416 C245.104438,205.719933 244.64057,205.064159 244.172312,204.403026 C244.172312,204.403026 244.173859,204.404652 244.176952,204.407906 C235.339099,192.025351 230.920172,185.834074 230.920172,185.834074 C225.678336,178.488653 217.729559,167.347479 207.073841,152.41055 L203.623907,152.41543 C203.5645,152.412177 203.534797,152.41055 203.534797,152.41055 C189.556591,152.41055 175.580824,152.43399 161.599928,152.44326 C161.599928,152.44326 146.813455,152.455794 117.24051,152.48086 L117.27347,152.523341 C163.30728,216.407158 186.324185,248.349067 186.324185,248.349067 C187.003872,249.285592 187.778769,250.123977 188.509475,251.009242 C188.945263,251.561495 189.373972,252.115208 189.823679,252.63474 C190.552436,253.468725 191.306093,254.260239 192.086369,255.047354 C192.945985,255.932609 193.830991,256.785643 194.725757,257.600098 C195.234055,258.05908 195.730633,258.514163 196.25065,258.953625 C199.405426,261.62454 202.81336,263.923862 206.478874,265.817433 C207.32018,266.257375 208.179796,266.632377 209.036972,267.03033 C209.785989,267.362851 210.531105,267.714413 211.299662,268.028385 C218.29548,270.932211 225.851355,272.57187 233.6394,272.57187 C233.6394,272.57187 236.220688,272.57187 236.220688,272.57187 C247.580256,272.54843 258.947145,272.56308 270.311593,272.56699 C270.311593,272.56699 270.309966,272.568617 270.306713,272.57187 L292.90891,272.57186 Z" id="Path-20524" fill="#CE5FFC"></path>
            </g>
        </g>
    </g>
</svg>